<svg xmlns="http://www.w3.org/2000/svg" viewBox="0 0 2742 943">
    <path fill="black" d="M1701 338v158l-2 108c-1 45-6 89-15 132-3 19-12 36-20 53-13 26-28 50-49 70-17 17-38 29-62 33-9 1-16 4-24 7-13 5-26 5-39 4-19-1-37-4-55-10-19-6-33-20-45-35a222 222 0 0 1-22-36c-4-9-6-19-9-29a654 654 0 0 1-27-186c-2-43 0-86 3-130 1-23 1-46 4-69a1018 1018 0 0 1 51-235c7-19 16-38 25-57 4-8 10-15 15-22l17-24c9-14 21-23 34-31 12-8 25-12 39-11l15-2c13-2 25-1 38 1 45 7 73 34 89 76 3 10 9 18 11 28q10 38 17 76c6 30 7 61 8 91v40h3zm-175 523c8 0 14 2 19-3l22-22c13-16 23-35 32-55l14-38a646 646 0 0 0 17-108l2-62c1-33 3-66 3-100l-2-169a692 692 0 0 0-7-92c-5-36-14-72-30-106a74 74 0 0 0-45-42c-4-1-10-2-14 0-14 6-27 15-36 28-15 24-31 48-43 73-11 22-18 46-25 69-6 21-12 43-15 65-5 30-8 61-11 92-4 44-9 89-9 134 0 46 0 92 5 138 5 42 14 84 28 125 4 12 8 25 18 36 21 24 47 37 77 37zm-88-4l-10-11c-7-12-16-24-22-37a1392 1392 0 0 1-27-108c-7-41-11-83-11-125q0-42 2-83c1-38 3-75 6-112s8-73 17-109l9-37a4 4 0 0 0-2 3c-8 28-16 57-20 87l-9 84c-3 25-6 50-7 75-2 21-2 43-3 64-1 46 0 91 6 137 4 37 11 73 23 108 4 15 8 30 20 41 8 9 16 18 28 23zm202-91l3-5a586 586 0 0 0 27-163v-67a8760 8760 0 0 0-2-216l-6-90a373 373 0 0 0-20-92l-11-26-2 1 3 5 8 20c10 32 16 65 19 98a1679 1679 0 0 1 6 158l-2 133-2 97a547 547 0 0 1-8 79l-11 62a62 62 0 0 1-3 6zM300 575l4-99c2-24 2-48 5-71l8-66c5-40 16-79 26-118 5-20 13-40 21-59 4-12 10-24 16-36 8-20 24-36 35-54 9-14 21-23 34-32 15-10 31-13 49-12a156 156 0 0 1 40 10l26 7c24 8 43 25 55 47 17 32 28 65 35 101a697 697 0 0 1 12 111l2 116 1 91-2 105a687 687 0 0 1-15 132c-3 15-10 30-16 44-11 26-26 49-44 70-19 21-42 36-70 42h-22l-41-1c-22-1-43-4-62-13-21-10-35-28-48-46-13-19-18-41-23-62-12-41-18-83-22-125l-4-82zm67 0a674 674 0 0 0 4 100c5 44 14 88 29 130 3 7 5 15 10 21 14 20 32 35 56 43 7 2 14 4 23 2 15-5 28-13 39-24 15-16 26-34 35-53 7-16 14-32 19-48 4-14 7-28 9-43 3-19 7-39 8-58l3-61 3-116-1-127-1-56c-2-26-4-52-8-77-5-40-16-78-36-114a69 69 0 0 0-12-15c-4-4-9-7-14-8-11-3-22 1-33 7-15 9-29 21-38 37l-39 68c-5 9-7 20-11 30a523 523 0 0 0-31 137l-9 89-5 55v81zm266-321h-1v8l1 42 2 95-1 93-1 39-2 74-2 48-10 73c-5 37-21 71-41 102l-12 18a23 23 0 0 0 7-6c14-17 24-37 33-57 5-10 9-20 12-31a447 447 0 0 0 10-47l8-62 1-45 2-92-3-179-3-73zM340 419l-2 17-5 54-2 53c0 27-1 54 1 81l9 87a473 473 0 0 0 28 107l8 14c-6-21-13-41-18-62a698 698 0 0 1-19-113c-2-22-4-44-4-66l2-94 2-54v-24zm5-44l13-77 18-79c-19 52-27 105-31 156zM823 581a21 21 0 0 0 2 3c22 24 37 52 52 81 18 34 35 69 54 102l35 66 20 37a69 69 0 0 1 5 12c2 6-1 12-7 14-7 2-14 1-18-4-7-8-13-16-18-25-11-18-20-37-30-55l-61-116-16-34-19-32h-1l8 16 35 71c11 20 23 41 33 62l38 75 11 20a82 82 0 0 1 5 12c2 7 0 13-7 15s-14 1-19-5l-18-27-56-110-35-70a15 15 0 0 0-4-6v8l1 68v114a28 28 0 0 1-2 11c-2 6-9 8-17 7-6-1-11-7-11-15l-1-42-1-94-1-111-2-12h-2l-1 14v206l-1 42c-1 13-11 19-23 13-4-2-7-6-7-11a60 60 0 0 1-1-10V649l1-115v-77l1-116-1-119v-26l-1-152c0-12 8-20 20-18l6 1 50 11c18 5 34 15 48 28a299 299 0 0 1 90 177l4 60c2 38-6 75-13 112a275 275 0 0 1-84 147 83 83 0 0 1-41 19zm-14-46a35 35 0 0 0 4-3c11-13 23-24 32-38 18-23 32-49 38-78l10-61c2-7 4-15 4-23v-48c-1-20 0-40-5-59-7-26-14-51-28-74-4-8-11-16-16-24-10-20-24-36-41-50l-4-3 1 15 2 131 2 75 1 118v122zm-30 17v-3l-1-96-1-146-2-93v-20 179l-2 179zm122-94l2 1 10-25c7-23 11-47 13-70 1-14 6-27 5-42-2-22-2-45-3-68a86 86 0 0 0 0-10 99 99 0 0 0-3-10l-2-7 4 49c1 24 3 49-2 73-5 31-12 61-18 92l-6 18zM2201 537l-10 39v20l1 48 3 161 1 65c0 7-3 10-9 12-7 2-13 0-15-6a82 82 0 0 1-5-25l-3-122-2-102a135 135 0 0 0-2-21v73l-1 83-2 124c0 7-4 12-10 13-9 1-15-1-16-10a166 166 0 0 1-3-31l1-116 1-100-1-46V422l-1-103v-96l-1-67 3-99c0-8 6-14 14-16a11 11 0 0 0 5-3c7-8 17-8 24-1a7 7 0 0 1 2 4l1 45 1 114 2 68 4 105 2 64a7 7 0 0 0 2 4l2-4c16-43 33-86 47-130 12-33 28-64 40-97l47-131a163 163 0 0 1 12-27c3-5 8-8 12-11a34 34 0 0 0 3-3l7-8c2-3 5-4 9-3 6 2 10 5 12 10 2 7 0 13-2 18l-13 33-18 50-42 123-41 118-22 61a21 21 0 0 0 0 15l17 47c20 59 39 117 60 175l49 135 18 46c2 7 0 14-6 18-8 5-15 3-20-4-13-20-19-42-27-64l-45-125-37-111-23-72-5-9h-1l3 12 23 77 49 155 44 132 6 15c2 6-2 15-9 18-5 2-14 1-18-6-9-16-15-32-20-50l-27-84-33-105-30-100-5-18zM2566 865c-19-7-33-18-46-33-7-9-12-20-15-31-2-7 0-11 9-16 4-4 9-1 12 2 5 5 10 10 13 17 11 20 29 30 50 35l32 4c4 0 7-2 9-6 10-16 14-34 16-53 4-34 3-68 2-103 0-25-2-51-11-75-12-36-22-72-38-106-14-31-32-59-52-86-15-22-31-43-44-66-21-38-37-78-40-121-2-18-1-37-1-55 0-19 4-38 11-55 6-15 13-29 22-42 6-8 15-15 24-19l60-27a163 163 0 0 1 98-5c6 3 9 8 8 15-1 6-5 10-11 11a53 53 0 0 1-9 0h-13a14 14 0 0 0-1 2c0 11-4 15-15 15l-21-1c-13-2-25 1-38 3l-4 1c-12 2-21 7-27 18-7 13-15 26-17 41a363 363 0 0 0-1 82c2 19 8 37 15 54 11 25 23 49 38 71l37 51a619 619 0 0 1 97 227 466 466 0 0 1 4 50l1 73c-1 29-5 57-18 83-12 25-29 43-57 49a6 6 0 0 0-3 2 74 74 0 0 1-46 24c-30 3-59 0-86-13a88 88 0 0 1-47-59c-2-7 1-12 9-17 5-3 9 0 12 3l15 20c7 14 19 23 34 29a91 91 0 0 0 33 7zm106-52h1c2-4 5-9 6-14 8-21 11-42 11-64l-3-97c-1-17-5-34-9-51l-13-40c-13-36-27-72-47-104-12-20-26-38-40-56-20-28-40-56-54-87-11-24-20-48-24-74-4-24-3-49-3-74l1-15a18 18 0 0 0-3 8l-3 32c0 21-1 42 3 63 7 36 23 69 41 101 12 20 28 38 41 58a591 591 0 0 1 88 191 360 360 0 0 1 13 93v75a194 194 0 0 1-1 23l-5 32zM1854 852h95l99-4c7 0 13 0 19 4a15 15 0 0 1 6 15c-1 5-6 7-10 8l-27 4h-4c-2 11-6 14-18 15l-49 3-152 3c-7 0-15-3-22-5s-11-8-10-16v-73c0-26 0-53 2-80 3-69 1-137 1-206v-69l1-130-1-151-1-121c0-12 9-19 20-17 6 1 9 6 11 11 1-8 4-15 12-17 10-3 18 1 19 11a163 163 0 0 1 2 23l3 92 3 106c0 27-2 54-1 81l2 152v33l1 76v78l-1 123v51zm-34-585h-1l-2 65v173l-1 202-1 42-3 99v19h9l1-3 1-158v-81l-1-76-2-109V323v-56zM262 47l19 2c9 1 10 3 10 8 0 14-2 18-10 20a33 33 0 0 1-6 0l-98 1-96 3 5 349h59a21 21 0 0 1 15 6 9 9 0 0 0 5 2l15 1c11 1 17 8 16 18-1 5-4 9-9 10a48 48 0 0 1-8 1l-91 1h-5v133l-1 233v48c0 6-3 12-6 17s-8 7-14 5-10-8-11-15v-20-94-158l1-83 2-71v-5h-4v6l-2 110-1 100-1 93-1 85c-1 12 1 25-4 37-3 5-6 9-12 9a13 13 0 0 1-13-6 21 21 0 0 1-2-10v-85l1-94 1-98 3-81 4-111 1-38v-66-5l-1-142V57l2-13c2-5 6-8 11-8h204a75 75 0 0 1 15 2c4 1 9 3 7 9zM53 429h2a28 28 0 0 0 0-5l1-57-2-93a39 39 0 0 0 0-4h-1v159zM1114 69v72l2 103 1 61 1 96v26h93c10 0 16 6 17 14s-3 13-10 14l-24 1-7 1-12 2h-59v50l-1 58-1 255v48a41 41 0 0 1-3 13c-3 8-9 11-15 10s-12-7-12-15l-1-18V752 590l3-84v-47h-6v7l-1 87-1 93-1 85-2 102-1 45-5 15c-3 5-7 7-13 6a14 14 0 0 1-11-9 28 28 0 0 1-2-9v-68l1-101 2-99 3-90 3-80 2-79c1-45 0-89-1-134v-62V59a37 37 0 0 1 1-10c2-10 6-13 17-13h236a49 49 0 0 1 9 1c5 1 8 3 7 9a24 24 0 0 0 0 4c0 9-4 15-13 15h-70l-57 1-56 2-13 1zm-30 10h-1v347l2 4 2-4c1-17 2-35 1-52l-2-118-1-84-1-88v-5z"/>
</svg>