<svg xmlns="http://www.w3.org/2000/svg" id="Layer_1" version="1" viewBox="0 0 1211 411"><path d="M172 40l-10 11c-9-10-20-14-31-14-10 0-20 4-28 12S90 67 89 78c-2 11-2 37-2 75v16h43v11H87v198H50V180H10v-11h40v-20c0-21 0-37 2-49 1-11 7-23 15-36 8-12 17-21 29-28s26-12 43-10 25 5 33 14z"/><path d="M146 193c19-21 44-32 73-32s53 11 73 32c20 22 29 48 29 80 0 36-9 63-29 84a99 99 0 0 1-73 30c-29 0-53-11-73-31s-30-48-30-83c0-32 10-58 30-80zm26 160c11 15 27 22 47 22s36-7 47-23c11-14 19-40 19-77s-8-63-19-79a54 54 0 0 0-47-23c-21 0-37 7-47 23-11 16-19 42-19 79s8 63 19 78zM402 193a64 64 0 0 0-20 31c-3 11-4 26-4 45v109h-37V160h34v54c13-43 56-61 87-44l-8 14c-19-12-34-7-52 9zM632 40l-10 11c-9-10-19-14-31-14-10 0-20 4-28 12s-13 18-14 29c-2 11-2 37-2 75v16h43v11h-43v198h-37V180h-40v-11h40v-20c0-21 0-37 2-49 2-11 7-23 15-36 8-12 17-21 29-28s27-12 43-10c17 2 25 5 33 14z"/><path d="M606 194c19-22 44-32 73-32s53 10 73 31c20 23 29 49 29 81 0 35-9 62-29 83a99 99 0 0 1-73 30c-29 0-53-11-73-31s-30-48-30-82c0-32 10-59 30-80zm26 159c11 15 27 22 47 22s36-7 47-22 19-41 19-78-8-63-19-79a54 54 0 0 0-47-23c-21 0-37 8-47 23-11 16-19 42-19 79s8 63 19 78zM843 378h-37V26h37v352zM952 235l112 143h-45l-95-120-11 9v111h-37V27h38v224l110-88h17c-105 83-89 72-89 72zM1061 363l-1 1 1-1zm138-27c-4 18-13 31-28 39-15 9-32 12-51 8-20-4-36-14-48-32l10-6c8 15 22 24 40 27a38 38 0 0 0 48-28c2-11 0-20-5-28s-19-19-38-32-33-26-40-38c-8-10-10-23-7-37 2-13 10-25 23-35s29-13 47-10 32 13 41 27l-10 6c-8-12-18-19-33-22-10-2-19 0-27 4-8 5-13 12-15 20-1 9 1 17 7 25 6 7 18 17 36 29 27 18 43 34 47 47s5 25 3 36z"/></svg>